<svg xmlns="http://www.w3.org/2000/svg" width="512" height="512" viewBox="0 0 512 512" version="1.1">
	<path d="M 155.272 50.437 C 146.306 52.609, 137.161 57.797, 130.590 64.437 C 125.217 69.867, 119.129 79.941, 78.861 150.046 C 53.760 193.746, 32.270 231.398, 31.107 233.719 C 28.358 239.200, 26.030 249.189, 26.030 255.500 C 26.030 261.811, 28.358 271.800, 31.107 277.281 C 32.270 279.602, 53.760 317.254, 78.861 360.954 C 119.290 431.339, 125.201 441.117, 130.642 446.615 C 137.401 453.445, 147.550 458.988, 156.799 460.903 C 164.198 462.435, 347.802 462.435, 355.201 460.903 C 364.458 458.987, 374.599 453.445, 381.358 446.609 C 386.781 441.124, 392.711 431.340, 432 363.049 C 456.475 320.508, 477.967 282.848, 479.760 279.359 C 487.374 264.542, 487.800 247.534, 480.902 233.719 C 479.744 231.398, 458.254 193.779, 433.148 150.119 C 382.657 62.316, 382.191 61.627, 368.927 55.171 C 355.755 48.760, 360.062 48.992, 255.540 49.085 C 182.498 49.150, 159.290 49.463, 155.272 50.437 M 156.024 60.591 C 148.785 62.552, 142.470 66.354, 137.174 71.938 C 131.910 77.490, 39.949 236.632, 37.868 243.791 C 35.857 250.714, 36.254 263.426, 38.671 269.500 C 40.921 275.151, 125.750 422.966, 132.502 433 C 137.457 440.365, 143.957 445.754, 152 449.166 L 157.500 451.500 256 451.500 L 354.500 451.500 360 449.166 C 368.048 445.752, 374.546 440.362, 379.490 433 C 386.130 423.113, 471.034 275.212, 473.349 269.500 C 476.174 262.532, 476.182 248.508, 473.367 241.500 C 471.109 235.880, 386.256 88.112, 379.480 78 C 374.657 70.802, 368.330 65.579, 360 61.917 L 354.500 59.500 258 59.304 C 175.384 59.135, 160.712 59.321, 156.024 60.591 M 326.857 115.862 C 314.350 119.283, 309.850 122.175, 308.746 127.500 C 307.602 133.016, 307.327 153.336, 308.307 159.920 C 308.989 164.502, 308.898 165.160, 307.719 164.182 C 304.880 161.825, 302.418 146.601, 302.899 134.376 C 303.322 123.637, 297.634 126.789, 271.856 151.576 C 268.406 154.893, 266.188 157.877, 266.150 159.251 C 265.893 168.592, 266.309 175.125, 267.840 185.813 C 269.522 197.551, 269.522 198.018, 267.847 195.813 C 264.081 190.855, 262.955 187.301, 262.387 178.587 C 261.968 172.141, 260.545 169.160, 257.827 169.032 C 255.769 168.934, 243.417 185.998, 232.461 204.073 C 231.889 205.015, 230.937 206.397, 230.345 207.143 C 229.303 208.455, 219.959 226.126, 212.706 240.500 C 208.470 248.896, 202.670 261.476, 199.827 268.437 C 198.689 271.222, 196.856 275.525, 195.753 278 C 193.944 282.058, 189.195 294.566, 187.021 301 C 186.556 302.375, 184.078 309.350, 181.514 316.500 C 178.950 323.650, 175.745 333.100, 174.392 337.500 C 173.038 341.900, 170.388 350.450, 168.501 356.500 C 166.615 362.550, 164.781 369.623, 164.427 372.218 C 164.073 374.813, 163.156 377.455, 162.391 378.090 C 160.236 379.879, 160.726 383.515, 163.995 389.991 C 168.660 399.231, 172.320 400.302, 176.831 393.745 C 183.757 383.679, 184.764 380.132, 181.783 376.310 C 180.336 374.456, 183.613 363.279, 187.538 356.678 C 189.442 353.476, 191 350.669, 191 350.439 C 191 348.688, 202.920 335.047, 214.983 322.995 C 230.781 307.209, 235.333 303.188, 247.598 294.181 C 258.664 286.054, 259.133 283.990, 250.246 282.524 C 247.906 282.139, 246.256 281.394, 246.580 280.871 C 246.904 280.347, 247.918 280.141, 248.834 280.413 C 256.948 282.821, 266.148 281.698, 270.040 277.824 C 271.422 276.449, 278.649 271.533, 295.188 260.719 C 306.765 253.148, 308.696 251.337, 307.399 249.262 C 306.593 247.973, 303.791 247.144, 296.957 246.173 C 291.821 245.443, 286.691 244.166, 285.559 243.336 C 283.623 241.916, 283.709 241.872, 287 242.591 C 288.925 243.012, 295.247 243.290, 301.048 243.209 C 315.783 243.004, 322.128 240.551, 331.298 231.516 C 335.029 227.839, 339.185 223.083, 340.534 220.947 C 342.930 217.151, 342.941 217.039, 341.031 216.016 C 339.662 215.284, 336.928 215.303, 331.918 216.081 C 327.843 216.713, 322.767 216.863, 320.130 216.430 L 315.500 215.668 319 214.940 C 324.755 213.743, 334.110 211.033, 337.410 209.607 C 339.109 208.873, 342.300 207.507, 344.500 206.573 C 349.853 204.299, 351.698 201.512, 353.962 192.275 C 357.065 179.618, 357.348 167.847, 354.967 150.603 C 353.819 142.296, 352.287 133.700, 351.561 131.500 C 350.835 129.300, 349.666 124.918, 348.964 121.762 C 346.839 112.218, 343.467 111.318, 326.857 115.862" stroke="none" fill="black" fill-rule="evenodd"/>
</svg>